<svg xmlns="http://www.w3.org/2000/svg" width="16" height="16" fill="currentColor" class="bi bi-stars" viewBox="0 0 16 16">
  <path
     d="m 7.6378131,0.15203712 a 0.17157027,0.17300105 0 0 1 0.3257463,0 L 8.2695396,1.0784297 c 0.1367823,0.4129704 0.4577842,0.7366498 0.8673391,0.8745722 l 0.9187323,0.3085319 a 0.17157027,0.17300105 0 0 1 0,0.3284628 L 9.1368787,2.8985284 A 1.3709809,1.3824139 0 0 0 8.2695396,3.7731005 L 7.9635594,4.6994932 a 0.17157027,0.17300105 0 0 1 -0.3257463,0 L 7.331833,3.7731005 A 1.3709809,1.3824139 0 0 0 6.4644941,2.8985284 L 5.5457628,2.5899966 a 0.17157027,0.17300105 0 0 1 0,-0.3284628 L 6.4644941,1.9530019 A 1.3709809,1.3824139 0 0 0 7.331833,1.0784297 Z"
     id="path1183"
     style="stroke-width:0.793937" />
  <path
     d="m 12.187318,3.7847929 a 0.17157027,0.17300105 0 0 1 0.325747,0 l 0.30598,0.9263927 c 0.136783,0.4129702 0.457785,0.7366497 0.86734,0.8745721 l 0.918732,0.3085318 a 0.17157027,0.17300105 0 0 1 0,0.3284628 l -0.918732,0.3085315 a 1.3709809,1.3824139 0 0 0 -0.86734,0.8745729 l -0.30598,0.9263926 a 0.17157027,0.17300105 0 0 1 -0.325747,0 L 11.881339,7.4058567 A 1.3709809,1.3824139 0 0 0 11.014,6.5312838 L 10.095269,6.2227523 a 0.17157027,0.17300105 0 0 1 0,-0.3284628 L 11.014,5.5857577 a 1.3709809,1.3824139 0 0 0 0.867339,-0.8745721 z"
     id="path1183-7"
     style="stroke-width:0.793937" />
  <path
     d="m 7.8859836,11.316603 a 0.17157027,0.17300105 0 0 1 0.3257463,0 l 0.3059806,0.926392 c 0.1367822,0.412971 0.4577841,0.736651 0.8673394,0.874572 l 0.9187321,0.308532 a 0.17157027,0.17300105 0 0 1 0,0.328464 l -0.9187321,0.308532 a 1.3709809,1.3824139 0 0 0 -0.8673394,0.874572 l -0.3059806,0.926392 a 0.17157027,0.17300105 0 0 1 -0.3257463,0 L 7.5800034,14.937667 A 1.3709809,1.3824139 0 0 0 6.7126646,14.063095 L 5.7939333,13.754563 a 0.17157027,0.17300105 0 0 1 0,-0.328464 l 0.9187313,-0.308532 a 1.3709809,1.3824139 0 0 0 0.8673388,-0.874572 z"
     id="path1183-4"
     style="stroke-width:0.793937" />
  <path
     d="m 2.7219828,4.1433744 c 0.086972,-0.2630891 0.4554123,-0.2630891 0.5423835,0 L 3.7743332,5.687628 A 2.2849682,2.3040231 0 0 0 5.2204255,7.1449823 L 6.751117,7.6592024 c 0.2609137,0.087701 0.2609137,0.4592106 0,0.5469064 L 5.2196348,8.7203287 A 2.2849682,2.3040231 0 0 0 3.7743332,10.178481 l -0.5099669,1.543455 a 0.28542336,0.28780359 0 0 1 -0.5423835,0 L 2.2120158,10.177684 A 2.2849682,2.3040231 0 0 0 0.76671412,8.7203287 L -0.76476815,8.2061088 a 0.28542336,0.28780359 0 0 1 0,-0.5469064 L 0.76671412,7.1449823 A 2.2849682,2.3040231 0 0 0 2.2120158,5.687628 Z"
     id="path1093"
     style="stroke-width:0.793937" />
  <path
     d="m 9.780487,7.2930572 a 0.11464374,0.11559978 0 0 1 0.2166365,0 l 0.2039875,0.6170641 c 0.09093,0.2758447 0.305189,0.491896 0.578753,0.583579 l 0.61196,0.205688 a 0.11464374,0.11559978 0 0 1 0,0.2184432 l -0.61196,0.2056886 A 0.91398728,0.92160928 0 0 0 10.201111,9.7070995 L 9.9971235,10.324163 a 0.11464374,0.11559978 0 0 1 -0.2166365,0 L 9.5765,9.7070995 A 0.91398728,0.92160928 0 0 0 8.997746,9.1235201 L 8.3865769,8.9178315 a 0.11464374,0.11559978 0 0 1 0,-0.2184432 L 8.9985373,8.4937003 C 9.2721005,8.4020163 9.4863663,8.185966 9.5772902,7.9101213 L 9.780487,7.2938549 Z"
     id="path1777"
     style="stroke-width:0.793937" />
</svg>